<?xml version="1.0" encoding="UTF-8" standalone="no"?>
<!-- Generator: Adobe Illustrator 18.1.1, SVG Export Plug-In . SVG Version: 6.00 Build 0)  -->

<!-- License: CC0. Made by SVG Repo: https://www.svgrepo.com/svg/150475/musical-beam-note -->

<svg
   version="1.1"
   id="Capa_1"
   x="0px"
   y="0px"
   viewBox="0 0 270.10753 280.81508"
   xml:space="preserve"
   width="270.10754"
   height="280.81509"
   xmlns="http://www.w3.org/2000/svg"
   xmlns:svg="http://www.w3.org/2000/svg"><defs
   id="defs1" />
<g
   id="g1"
   transform="translate(-11.812,8.9877475e-5)">
	<path
   style="fill:#010002"
   d="m 107.643,10.255 v 163.166 c 0,6.005 -4.346,8.654 -9.948,6.483 -8.316,-3.22 -20.63,-6.957 -32.172,-6.511 -29.643,1.148 -53.711,24.046 -53.711,53.711 0,29.665 24.046,53.711 53.711,53.711 8.425,0 16.366,-1.991 23.464,-5.45 45.846,-19.902 44.715,-56.164 44.715,-56.164 V 55.122 c 0,-6.005 4.857,-10.568 10.856,-10.193 l 86.166,5.434 c 5.999,0.375 10.856,5.553 10.856,11.563 v 96.087 c 0,6.005 -4.422,10.084 -9.883,9.105 l -9.883,-1.768 c -0.571,-0.125 -1.159,-0.207 -1.735,-0.31 l -0.941,-0.169 c -2.415,-0.348 -4.879,-0.604 -7.403,-0.604 -26.418,0 -47.82,21.403 -47.82,47.82 0,26.412 21.403,47.82 47.82,47.82 7.859,0 15.262,-1.904 21.794,-5.265 5.341,-2.747 13.141,-8.708 17.454,-12.885 7.468,-7.234 11.977,-15.186 14.62,-21.305 2.382,-5.521 3.399,-15.186 3.399,-21.191 V 19.774 c 0,-6.005 -4.863,-11.166 -10.862,-11.52 L 118.505,0.019 c -5.994,-0.353 -10.862,4.232 -10.862,10.236 z"
   id="path1" />
</g>
<rect
   style="fill:#000000;fill-opacity:1;fill-rule:evenodd;stroke:#ffffff;stroke-width:1.04486;stroke-linecap:round;stroke-linejoin:round;stroke-opacity:1"
   id="rect1"
   width="22.674021"
   height="369.50043"
   x="185.80966"
   y="-173.75771"
   transform="matrix(0.74083111,0.67169135,-0.68983825,0.72396353,0,0)"
   ry="11.33701" /></svg>
