<?xml version="1.0" encoding="UTF-8" standalone="no"?>
<!-- Created with Inkscape (http://www.inkscape.org/) -->

<svg
   width="407.38751mm"
   height="229.60013mm"
   viewBox="0 0 1539.7324 867.78"
   version="1.1"
   id="svg1"
   xml:space="preserve"
   xmlns:xlink="http://www.w3.org/1999/xlink"
   xmlns="http://www.w3.org/2000/svg"
   xmlns:svg="http://www.w3.org/2000/svg"><defs
     id="defs1"><linearGradient
       id="linearGradient92"><stop
         style="stop-color:#ffffff;stop-opacity:0.63803703;"
         offset="0"
         id="stop92" /><stop
         style="stop-color:#000000;stop-opacity:0;"
         offset="1"
         id="stop93" /></linearGradient><pattern
       xlink:href="#pattern15-8"
       preserveAspectRatio="none"
       id="pattern91"
       patternTransform="matrix(7.8,0,0,6.5,445,105)"
       x="0"
       y="0" /><pattern
       patternUnits="userSpaceOnUse"
       width="20"
       height="20"
       patternTransform="translate(445,105)"
       preserveAspectRatio="xMidYMid"
       style="fill:#cdcdcd"
       id="pattern15-8"><path
         style="stroke-width:4.8561;stroke-linecap:square;paint-order:stroke markers fill;stop-color:#000000"
         d="M 0,0 V 10 H 10 C 5,10 0,5 0,0 Z M 10,10 V 0 H 20 C 15,0 10,5 10,10 Z m 0,10 V 10 H 0 c 5,0 10,5 10,10 z M 20,10 V 20 H 10 c 5,0 10,-5 10,-10 z"
         id="path11-3" /></pattern><pattern
       xlink:href="#Strips1_10"
       preserveAspectRatio="xMidYMid"
       id="pattern10"
       patternTransform="scale(2)"
       x="0"
       y="0" /><pattern
       patternUnits="userSpaceOnUse"
       width="11"
       height="1"
       patternTransform="translate(0,0) scale(2,2)"
       preserveAspectRatio="xMidYMid"
       id="Strips1_10"
       style="fill:#ffffff">
      <rect
   style="stroke:none"
   x="0"
   y="-0.5"
   width="1"
   height="2"
   id="rect176" />
    </pattern><pattern
       xlink:href="#Strips1_1"
       preserveAspectRatio="xMidYMid"
       id="pattern8"
       patternTransform="matrix(0,2,-2,0,-26.137547,0)"
       x="0"
       y="0"
       width="2.4" /><pattern
       patternUnits="userSpaceOnUse"
       width="2"
       height="10"
       patternTransform="translate(0,0) scale(2,2)"
       preserveAspectRatio="xMidYMid"
       id="Strips1_1"
       style="fill:#ffffff">
      <rect
   style="stroke:none"
   x="0"
   y="-0.5"
   width="1"
   height="11"
   id="rect134" />
    </pattern><pattern
       xlink:href="#Strips4_1"
       preserveAspectRatio="none"
       id="pattern36"
       patternTransform="matrix(0,6.1101029,-2.0190315,0,37.696373,-1.3144039)"
       x="0"
       y="0" /><pattern
       patternUnits="userSpaceOnUse"
       width="1.25"
       height="1"
       patternTransform="translate(0,0) scale(2,2)"
       preserveAspectRatio="xMidYMid"
       id="Strips4_1"
       style="fill:#000000">
      <rect
   style="stroke:none"
   x="0"
   y="-0.5"
   width="1"
   height="2"
   id="rect203" />
    </pattern><radialGradient
       xlink:href="#linearGradient92"
       id="radialGradient93"
       cx="808.97498"
       cy="557.53052"
       fx="808.97498"
       fy="557.53052"
       r="350.13525"
       gradientTransform="matrix(-1.8289174,0.91930966,-0.84133784,-1.5330353,3024.8805,632.61899)"
       gradientUnits="userSpaceOnUse" /></defs><g
     id="layer3"
     transform="translate(0,-20.535596)"><g
       id="g11"
       style="display:inline"><rect
         style="display:inline;fill:#6f806f;fill-opacity:1;fill-rule:evenodd;stroke:none;stroke-width:0.52111;stroke-linecap:butt;stroke-linejoin:miter;stroke-dasharray:none;stroke-dashoffset:0;stroke-opacity:1"
         id="rect34-4-2"
         width="1654.7316"
         height="894.47614"
         x="-10.999331"
         y="-13.69627" /><rect
         style="fill:url(#pattern91);fill-opacity:1;fill-rule:evenodd;stroke:#f0f0f0;stroke-width:0.623622;stroke-linejoin:round"
         id="rect8"
         width="1623.5651"
         height="1120.9333"
         x="-258.62759"
         y="-196.58299"
         ry="0"
         transform="matrix(0.97778925,0,0,0.85630161,249.86391,169.59237)" /><path
         id="rect13"
         style="fill:#422000;fill-opacity:1;fill-rule:evenodd;stroke:#f0f0f0;stroke-width:0.634538;stroke-linejoin:round"
         d="M -271.25276,627.30692 H 1463.6967 L 1355.4503,948.20624 H -442.64293 Z"
         transform="matrix(0.97778925,0,0,0.85630161,249.86391,169.59237)" /><rect
         style="display:inline;mix-blend-mode:multiply;fill:#000000;fill-opacity:0.638037;fill-rule:evenodd;stroke:#000000;stroke-width:3.26929;stroke-linejoin:round"
         id="rect91"
         width="1918.2054"
         height="1261.8627"
         x="-277.58511"
         y="-228.8407"
         transform="matrix(0.97778925,0,0,0.85630161,249.86391,169.59237)" /><rect
         style="display:inline;mix-blend-mode:luminosity;fill:url(#radialGradient93);fill-opacity:1;fill-rule:evenodd;stroke:none;stroke-width:3.72701;stroke-linejoin:round"
         id="rect92"
         width="2131.0779"
         height="1512.418"
         x="-194.88582"
         y="-330.88568" /></g><g
       id="g1"
       style="display:inline;opacity:1;fill:url(#pattern10);fill-opacity:1"
       transform="matrix(1.4035093,0,0,1.4035093,10.223142,-193.48619)"><path
         id="path4"
         style="opacity:1;fill:#000000;fill-opacity:0.875;fill-rule:evenodd;stroke:none;stroke-width:0.551811;stroke-opacity:1;paint-order:normal"
         d="m 550.34058,657.0689 6.89741,66.43293 c 0.63529,4.33505 23.46026,4.94359 24.32243,0.72604 l 7.87768,-45.37935 2.25083,11.04225 c 0.59463,3.5686 17.95337,2.18064 18.5141,0 l 3.63021,-30.85683 m 292.99444,-1.239 3.99324,31.94589 c 0.47914,2.97663 14.76741,3.56099 15.60992,0 l 1.81511,-10.89231 5.44532,43.56425 c 0.98728,5.58342 23.42199,6.29158 25.04848,0 l 8.71252,-66.43293" /></g><g
       id="g12"
       transform="matrix(1.4035093,0,0,1.4035093,10.223129,-193.48619)"
       style="display:inline"><path
         style="fill:none;fill-opacity:1;fill-rule:evenodd;stroke:#000000;stroke-width:3.26929;stroke-linejoin:round;stroke-dasharray:none;stroke-opacity:1"
         d="m 530.31561,43.477165 -1.36134,-3.720969 -2.26888,1.724351 3.4487,1.996618 228.34052,304.484265 206.57005,-304.323289 1.98939,-3.850424 1.92521,1.732692 -3.9146,2.310254"
         id="path13" /><g
         id="g10"
         style="display:inline;opacity:1"
         transform="translate(-1.9289943,-0.72604206)"><path
           id="rect1"
           style="display:inline;opacity:1;fill:#855434;fill-opacity:1;fill-rule:evenodd;stroke:none;stroke-width:6.21354;stroke-dasharray:none;stroke-opacity:1"
           d="m 514.02007,299.85574 h 498.10213 c 4.0121,0 7.1701,3.23062 7.2421,7.24209 2.0781,115.81609 5.3469,231.63218 0,347.44827 -0.185,4.00784 -3.23,7.24208 -7.2421,7.24208 H 514.02007 c -4.01212,0 -7.09115,-3.23281 -7.24209,-7.24208 -4.26009,-113.15528 -4.61588,-228.65456 0,-347.44827 0.15578,-4.00909 3.22997,-7.24209 7.24209,-7.24209 z"
           transform="translate(-4.0329578e-6)" /><path
           id="rect3"
           style="display:inline;opacity:1;fill:#b89a7e;fill-opacity:1;fill-rule:evenodd;stroke:#2f2017;stroke-width:2.81953;stroke-dasharray:none;stroke-opacity:1"
           d="m 523.04413,318.00681 479.62117,-2.05356 V 643.39862 H 523.04413 Z"
           transform="translate(-4.0329578e-6)" /></g><g
         id="g9"
         style="display:inline;opacity:1"
         transform="translate(-1.9289943,-0.72604206)"><path
           id="rect4"
           style="display:inline;opacity:1;fill:#8a6c4f;fill-opacity:1;fill-rule:evenodd;stroke:#000000;stroke-width:0.551811;stroke-opacity:1"
           d="m 550.06393,336.95993 c 110.93653,-11.90306 220.63238,-15.12143 327.70827,0 4.97845,0.70307 8.38976,4.09468 9.07553,9.07553 15.72561,114.21814 13.55122,195.4424 -1.81511,270.98621 -1.00219,4.92695 -4.07607,8.54199 -9.07553,9.07553 -113.59021,12.12238 -221.70353,9.08203 -326.6192,0 -5.00911,-0.43361 -8.44188,-4.08778 -9.07553,-9.07553 -15.71069,-123.66612 -17.62587,-141.41298 0.72604,-270.98621 0.70507,-4.97816 4.07638,-8.53914 9.07553,-9.07553 z"
           transform="translate(0.90220957,1.7528227)" /><path
           id="rect5"
           style="display:inline;opacity:1;fill:#000000;fill-opacity:1;fill-rule:evenodd;stroke-width:0.551811"
           d="m 555.48785,342.55944 c 107.60914,-12.50289 213.71918,-15.6653 316.8899,-0.51339 3.93959,0.57858 6.66532,3.23998 7.18746,7.18746 10.13393,76.61557 15.46762,161.67131 -1.41183,262.59892 -0.65681,3.92731 -3.22675,6.77766 -7.18746,7.18746 -104.92648,10.85639 -210.08361,11.25904 -316.6332,0.12835 -3.9603,-0.41371 -6.56419,-3.25469 -7.18746,-7.18746 -13.89256,-87.66132 -16.21141,-174.29586 1.15513,-262.21388 0.77163,-3.90638 3.23222,-6.72791 7.18746,-7.18746 z"
           transform="translate(0.90220957,1.7528227)" /><path
           id="rect34"
           style="display:inline;opacity:1;fill:url(#pattern8);fill-opacity:1;fill-rule:evenodd;stroke-width:1.30772;stroke-linejoin:round"
           d="m 566.14759,354.05219 c 97.25239,-12.41321 193.57624,-12.75532 288.89259,0 4.65731,0.62325 7.36722,3.91687 8.48164,8.48163 18.67867,76.50967 15.12457,154.28979 0,232.73108 -0.88961,4.61385 -3.84145,7.74161 -8.48164,8.48164 -78.72094,12.55471 -163.36922,20.8756 -288.89259,0 -4.63517,-0.77087 -7.90526,-3.81829 -8.48164,-8.48164 -8.96505,-72.53422 -17.52922,-145.07774 0,-232.73108 0.92144,-4.60759 3.82062,-7.8867 8.48164,-8.48163 z"
           transform="translate(0.90220957,1.7528227)" /></g></g><g
       id="g6"
       transform="matrix(1.4035093,0,0,1.4035093,4.4587518,-193.48619)"
       style="display:inline"><g
         id="g13"
         style="display:inline"
         transform="translate(2.9945047e-6)"><path
           id="rect2"
           style="display:inline;opacity:0.899563;fill:#b89a7e;fill-opacity:1;fill-rule:evenodd;stroke:#252525;stroke-width:1.759;stroke-dasharray:none;stroke-opacity:1"
           d="m 908.41652,315.7406 h 94.71718 c 1.2804,0 2.3112,1.03078 2.3112,2.31117 v 322.22531 c 0,1.28039 -1.0308,2.31118 -2.3112,2.31118 h -94.71718 c -1.28039,0 -2.31117,-1.03079 -2.31117,-2.31118 V 318.05177 c 0,-1.28039 1.03078,-2.31117 2.31117,-2.31117 z"
           transform="matrix(0.989693,0,0,1.0000087,9.337786,-0.00417454)" /><rect
           style="opacity:1;fill:url(#pattern36);fill-opacity:1;fill-rule:evenodd;stroke:#2f2017;stroke-width:0.541516;stroke-opacity:1"
           id="rect7"
           width="95.757515"
           height="161.47142"
           x="907.41144"
           y="480.01437"
           ry="0" /><rect
           style="opacity:1;fill:#b89a7e;fill-opacity:1;fill-rule:evenodd;stroke:#19110d;stroke-width:0.994016;stroke-linejoin:round;stroke-dasharray:none;stroke-opacity:1"
           id="rect36"
           width="93.146156"
           height="159.51682"
           x="908.79309"
           y="318.21945"
           ry="2.3140917" /><path
           id="path36-2"
           style="fill:#b89a7e;fill-rule:evenodd;stroke:#19110d;stroke-width:1.05036;stroke-linejoin:round"
           d="m 986.51503,423.03025 a 30.102613,29.739592 0 0 1 -30.10262,29.73959 30.102613,29.739592 0 0 1 -30.10261,-29.73959 30.102613,29.739592 0 0 1 30.10261,-29.73959 30.102613,29.739592 0 0 1 30.10262,29.73959 z m 0.15236,-68.72128 a 29.742712,29.742712 0 0 1 -29.74271,29.74271 29.742712,29.742712 0 0 1 -29.74271,-29.74271 29.742712,29.742712 0 0 1 29.74271,-29.74272 29.742712,29.742712 0 0 1 29.74271,29.74272 z" /><path
           id="path36-7-7"
           style="fill:#b89a7e;fill-rule:evenodd;stroke:#19110d;stroke-width:0.280152;stroke-linejoin:round"
           d="m 978.49772,466.49023 a 7.9803858,7.9803858 0 0 1 -7.98039,7.98039 7.9803858,7.9803858 0 0 1 -7.98038,-7.98039 7.9803858,7.9803858 0 0 1 7.98038,-7.98038 7.9803858,7.9803858 0 0 1 7.98039,7.98038 z m 18.65948,0.43973 a 7.9803858,7.9803858 0 0 1 -7.98038,7.98039 7.9803858,7.9803858 0 0 1 -7.98039,-7.98039 7.9803858,7.9803858 0 0 1 7.98039,-7.98038 7.9803858,7.9803858 0 0 1 7.98038,7.98038 z" /><path
           id="path37-6-9"
           style="fill:#303030;fill-rule:evenodd;stroke:#000000;stroke-width:0.266709;stroke-linejoin:round"
           d="m 976.75117,466.49023 a 6.23384,6.23384 0 0 1 -6.23384,6.23384 6.23384,6.23384 0 0 1 -6.23384,-6.23384 6.23384,6.23384 0 0 1 6.23384,-6.23384 6.23384,6.23384 0 0 1 6.23384,6.23384 z m 18.65949,0.43973 a 6.23384,6.23384 0 0 1 -6.23384,6.23384 6.23384,6.23384 0 0 1 -6.23384,-6.23384 6.23384,6.23384 0 0 1 6.23384,-6.23384 6.23384,6.23384 0 0 1 6.23384,6.23384 z" /><rect
           style="opacity:1;fill:#303030;fill-opacity:1;fill-rule:evenodd;stroke:#000000;stroke-width:0.994016;stroke-linejoin:round;stroke-dasharray:none;stroke-opacity:1"
           id="rect37"
           width="42.836533"
           height="12.34273"
           x="912.63599"
           y="461.03726"
           ry="2.3140917" /></g><path
         id="path37-2"
         style="display:inline;fill:#303030;fill-rule:evenodd;stroke:#f0f0f0;stroke-width:0.623622;stroke-linejoin:round;stroke-dasharray:none;stroke-opacity:1"
         d="m 979.92686,423.03025 a 23.514509,23.230938 0 0 1 -23.51451,23.23094 23.514509,23.230938 0 0 1 -23.51451,-23.23094 23.514509,23.230938 0 0 1 23.51451,-23.23094 23.514509,23.230938 0 0 1 23.51451,23.23094 z m 0.23114,-68.72128 a 23.233376,23.233376 0 0 1 -23.23338,23.23337 23.233376,23.233376 0 0 1 -23.23337,-23.23337 23.233376,23.233376 0 0 1 23.23337,-23.23338 23.233376,23.233376 0 0 1 23.23338,23.23338 z" /></g></g></svg>
